<svg xmlns="http://www.w3.org/2000/svg" viewBox="0 0 512 512" role="img" aria-labelledby="title">
  <title id="title">FollowMirror icon</title>
  <defs>
    <linearGradient id="bg" x1="38" y1="28" x2="474" y2="484" gradientUnits="userSpaceOnUse">
      <stop offset="0" stop-color="#ff6b8a" />
      <stop offset="0.45" stop-color="#c026d3" />
      <stop offset="1" stop-color="#0f172a" />
    </linearGradient>
    <linearGradient id="leftArc" x1="106" y1="136" x2="228" y2="382" gradientUnits="userSpaceOnUse">
      <stop offset="0" stop-color="#ffffff" />
      <stop offset="1" stop-color="#f8fafc" stop-opacity="0.88" />
    </linearGradient>
    <linearGradient id="rightArc" x1="286" y1="130" x2="408" y2="382" gradientUnits="userSpaceOnUse">
      <stop offset="0" stop-color="#67e8f9" />
      <stop offset="1" stop-color="#22d3ee" />
    </linearGradient>
    <filter id="softShadow" x="-30%" y="-30%" width="160%" height="160%">
      <feDropShadow dx="0" dy="18" stdDeviation="18" flood-color="#020617" flood-opacity="0.28" />
    </filter>
  </defs>

  <rect width="512" height="512" rx="118" fill="url(#bg)" />
  <path d="M92 94h192c72 0 126 40 146 106l30 98c22 72-30 120-104 120H132c-58 0-98-42-82-98l42-150c12-44 46-76 98-76Z" fill="#ffffff" opacity="0.12" />
  <path d="M220 132c-64 10-112 62-112 124s48 114 112 124" fill="none" stroke="url(#leftArc)" stroke-width="48" stroke-linecap="round" filter="url(#softShadow)" />
  <path d="M292 132c64 10 112 62 112 124s-48 114-112 124" fill="none" stroke="url(#rightArc)" stroke-width="48" stroke-linecap="round" filter="url(#softShadow)" />
  <path d="M256 116v280" stroke="#ffffff" stroke-width="18" stroke-linecap="round" opacity="0.44" />
  <circle cx="220" cy="132" r="23" fill="#ffffff" />
  <circle cx="292" cy="380" r="23" fill="#67e8f9" />
  <circle cx="256" cy="256" r="48" fill="#f8fafc" />
  <path d="M232 256h48" stroke="#0f172a" stroke-width="17" stroke-linecap="round" />
</svg>
